<?xml version="1.0" standalone="no"?><!DOCTYPE svg PUBLIC "-//W3C//DTD SVG 1.1//EN" "http://www.w3.org/Graphics/SVG/1.1/DTD/svg11.dtd"><svg t="1575427573420" class="icon" viewBox="0 0 1024 1024" version="1.1" xmlns="http://www.w3.org/2000/svg" p-id="1139" width="32" height="32" xmlns:xlink="http://www.w3.org/1999/xlink"><defs><style type="text/css"></style></defs><path d="M487.575966 536.397515c-63.619171 0-123.430821-24.774901-168.417308-69.760369-44.985468-44.985468-69.761388-104.797117-69.761388-168.415268 0-63.620191 24.774901-123.431841 69.761388-168.417308 44.985468-44.985468 104.798137-69.760368 168.417308-69.760369s123.431841 24.774901 168.417309 69.760369c44.985468 44.985468 69.761388 104.798137 69.761388 168.417308 0 63.619171-24.774901 123.429801-69.761388 168.415268-44.986487 44.985468-104.798137 69.760368-168.417309 69.760369z m0-435.554794c-108.83515 0-197.380177 88.544007-197.380177 197.379157 0 108.834131 88.545027 197.377117 197.380177 197.377117s197.380177-88.542987 197.380178-197.377117c0-108.83515-88.545027-197.379157-197.380178-197.379157z" p-id="1140"></path><path d="M37.666213 898.408898a20.409459 20.409459 0 0 1-4.11861-0.420225c-11.036-2.263298-18.148201-13.044307-15.885924-24.080306 21.596696-105.326478 79.424518-201.226458 162.833011-270.034181 41.535953-34.264637 88.121742-60.982567 138.468135-79.410238 52.103789-19.072288 106.905381-28.743577 162.878909-28.743577 11.266511 0 20.39926 9.132749 20.39926 20.39926s-9.132749 20.39926-20.39926 20.399259c-204.74635 0-383.153176 145.339626-424.211785 345.583859-1.980768 9.65395-10.4791 16.306148-19.963736 16.306149zM931.753528 901.276014c-9.485656 0-17.982967-6.651179-19.962716-16.305129-21.693593-105.795661-100.462274-217.278635-200.673638-284.014813-9.37652-6.245233-11.916228-18.909094-5.672014-28.285614 6.244213-9.37652 18.910114-11.914188 28.285614-5.672014 51.714163 34.44007 99.223019 80.513838 137.391054 133.242865 40.560868 56.031667 68.443596 117.076451 80.636234 176.534174 2.263298 11.037019-4.849924 21.818028-15.885924 24.081326a20.556334 20.556334 0 0 1-4.11861 0.419205zM986.824389 332.037731h-220.301805c-11.266511 0-20.39926-9.132749-20.39926-20.39926s9.132749-20.39926 20.39926-20.39926h220.300785c11.266511 0 20.39926 9.132749 20.39926 20.39926s-9.132749 20.39926-20.39824 20.39926zM986.824389 434.034029h-242.77159c-11.266511 0-20.39926-9.132749-20.39926-20.399259s9.132749-20.39926 20.39926-20.39926h242.77159c11.266511 0 20.39926 9.132749 20.39926 20.39926s-9.133769 20.39926-20.39926 20.399259zM986.824389 536.030328H691.825594c-11.266511 0-20.39926-9.132749-20.399259-20.39926s9.132749-20.39926 20.399259-20.399259h294.998795c11.266511 0 20.39926 9.132749 20.39926 20.399259s-9.133769 20.39926-20.39926 20.39926z" p-id="1141"></path></svg>